<svg width="84" height="110" viewBox="0 0 84 110" fill="none" xmlns="http://www.w3.org/2000/svg">
<path fill-rule="evenodd" clip-rule="evenodd" d="M42 93.1406C55.9797 93.1406 67.3125 81.8078 67.3125 67.8281C67.3125 53.8484 55.9797 42.5156 42 42.5156C28.0203 42.5156 16.6875 53.8484 16.6875 67.8281C16.6875 81.8078 28.0203 93.1406 42 93.1406ZM42 97.8281C58.5685 97.8281 72 84.3967 72 67.8281C72 51.2596 58.5685 37.8281 42 37.8281C25.4315 37.8281 12 51.2596 12 67.8281C12 84.3967 25.4315 97.8281 42 97.8281Z" fill="#010101"/>
<path d="M45.4759 74.9792L53.8476 90.2984L29.1317 103.805L20.76 88.4861L45.4759 74.9792Z" fill="white"/>
<circle cx="42" cy="68" r="39" stroke="#00ACC1" stroke-width="6"/>
<path d="M20.3445 85.1208C22.0143 84.2807 23.2851 83.3963 24.1569 82.4674C25.0813 81.5479 25.848 80.6002 26.457 79.6243C27.066 78.6483 27.6056 77.6056 28.0757 76.4962C28.5553 75.3343 29.2114 74.0954 30.0441 72.7798C29.8997 72.3741 29.8249 72.0351 29.8194 71.7629C29.8759 71.4475 29.9419 71.0795 30.0173 70.6589C30.0927 70.2384 30.2347 69.7484 30.4435 69.189C30.7049 68.639 31.0094 68.151 31.357 67.725C31.7141 67.2465 32.1096 66.8562 32.5435 66.5542C32.9774 66.2521 33.4572 66.1483 33.9829 66.2425C33.8927 66.4433 34.1394 66.7317 34.7231 67.1076C35.3594 67.4929 36.1223 67.9281 37.012 68.4131C37.9543 68.9076 38.9444 69.4377 39.9824 70.0036C41.0203 70.5694 41.9222 71.138 42.6879 71.7093C43.5399 72.4046 44.0933 73.1006 44.3482 73.7974C44.6651 74.451 44.7247 75.3298 44.5268 76.4337C44.3478 77.4325 44.0138 78.5392 43.5248 79.7537C43.0884 80.9776 42.621 82.2231 42.1225 83.4902C41.6861 84.7142 41.2187 85.9597 40.7203 87.2268C40.2839 88.4507 39.9715 89.5884 39.783 90.6397L39.4156 92.6899C39.2782 93.1536 39.3362 93.4352 39.5896 93.5349C39.905 93.5915 40.1942 93.6433 40.457 93.6904C41.0878 93.8035 41.6849 93.802 42.2483 93.6859C42.8116 93.5699 43.3797 93.4275 43.9525 93.2589C44.5779 93.0997 45.1722 92.9621 45.7356 92.8461C46.3084 92.6775 46.8933 92.5924 47.4904 92.5909L55.1926 89.5767C55.4689 89.2464 55.7835 89.0044 56.1366 88.8507C56.5517 88.6538 56.9358 88.4785 57.2889 88.3247C57.8711 88.1035 58.582 87.7698 59.4216 87.3235C59.8461 87.074 60.2969 86.8293 60.774 86.5892L63.1396 87.0132C63.2973 87.0415 63.3741 87.2181 63.3702 87.5429C63.3662 87.8677 63.3501 88.109 63.3218 88.2667C63.2088 88.8975 62.6206 89.6059 61.5573 90.392C60.4941 91.178 59.1633 91.9432 57.5649 92.6876C55.9665 93.432 54.2105 94.1481 52.2967 94.836C50.3923 95.4712 48.5284 96.0324 46.7049 96.5194C44.934 97.0158 43.2964 97.3734 41.7923 97.5921C40.3407 97.8202 39.2469 97.8683 38.511 97.7364C37.5648 97.5668 36.8449 97.1936 36.3515 96.6168C35.858 96.0401 35.4886 95.377 35.2431 94.6277C34.9976 93.8784 34.8667 93.0953 34.8503 92.2785C34.8959 91.4186 34.9894 90.5943 35.1308 89.8058C35.2344 89.2276 35.5644 88.4457 36.1209 87.4603C36.6773 86.4749 37.291 85.4727 37.962 84.4536C38.633 83.4344 39.2467 82.4322 39.8031 81.4468C40.3595 80.4614 40.6943 79.6533 40.8074 79.0224C40.8168 78.9699 40.4602 78.6889 39.7376 78.1796C39.0676 77.6797 38.3235 77.1394 37.5052 76.5587C36.6964 75.9254 35.926 75.3804 35.194 74.9236C34.524 74.4237 34.1937 74.1475 34.2031 74.0949C32.8299 75.0967 31.7843 76.2386 31.0662 77.5205C30.4006 78.8119 29.6994 80.1512 28.9625 81.5383C28.2781 82.9348 27.3571 84.2889 26.1997 85.6006C25.0947 86.9218 23.39 88.1083 21.0854 89.1601C21.0329 89.1507 20.9325 89.1056 20.7842 89.0248C20.5833 88.9345 20.4229 88.7701 20.3029 88.5316C20.1397 88.231 20.048 87.8348 20.0276 87.3428C20.0167 86.7983 20.1224 86.0576 20.3445 85.1208Z" fill="black"/>
</svg>
