<?xml version="1.0" standalone="no"?>
<!DOCTYPE svg PUBLIC "-//W3C//DTD SVG 20010904//EN"
 "http://www.w3.org/TR/2001/REC-SVG-20010904/DTD/svg10.dtd">
<svg version="1.0" xmlns="http://www.w3.org/2000/svg"
 width="700.000000pt" height="700.000000pt" viewBox="0 0 700.000000 700.000000"
 preserveAspectRatio="xMidYMid meet">
<metadata>
Created by potrace 1.11, written by Peter Selinger 2001-2013
</metadata>
<g transform="translate(0.000000,700.000000) scale(0.100000,-0.100000)"
fill="#000000" stroke="none">
<path d="M3200 5594 c-439 -58 -855 -240 -1190 -519 -93 -78 -268 -257 -342
-350 -488 -613 -630 -1461 -371 -2209 101 -293 261 -563 474 -803 66 -74 123
-124 114 -101 -4 9 18 25 62 47 174 85 318 210 432 376 28 40 104 174 169 298
146 277 171 312 313 435 l27 23 143 -104 c297 -214 358 -259 368 -270 22 -27
-40 -155 -187 -387 -237 -376 -262 -438 -264 -646 -2 -201 88 -366 225 -414
50 -18 82 -20 270 -20 384 0 663 54 977 187 280 120 495 267 726 497 271 271
446 552 563 902 86 261 121 473 121 744 0 364 -78 702 -235 1025 -113 230
-239 409 -424 598 -331 340 -704 549 -1171 656 -217 50 -570 66 -800 35z m481
-354 c466 -46 887 -245 1209 -569 690 -694 772 -1770 194 -2557 -83 -113 -180
-220 -278 -306 -93 -81 -259 -199 -331 -236 -81 -40 -563 -222 -591 -222 -16
0 -76 -12 -134 -25 -288 -68 -287 -68 -364 -56 -39 7 -77 18 -84 24 -10 10 -6
43 18 167 38 195 39 198 207 650 77 206 148 406 157 445 26 106 23 202 -7 269
-53 116 -140 183 -459 355 -250 134 -298 164 -331 201 -24 27 -33 30 -60 24
-70 -15 -163 -106 -216 -212 -35 -68 -64 -216 -52 -260 10 -33 7 -42 -39 -121
-27 -47 -74 -141 -105 -208 -110 -244 -238 -421 -392 -541 l-41 -32 -35 42
c-116 142 -249 391 -313 582 -135 408 -135 842 0 1252 47 143 169 385 254 503
196 275 428 475 724 625 337 170 707 242 1069 206z"/>
</g>
</svg>
