<svg width="90" height="90" viewBox="0 0 90 90" fill="none" xmlns="http://www.w3.org/2000/svg">
<rect width="90" height="90" fill="white"/>
<path fill-rule="evenodd" clip-rule="evenodd" d="M45 73.1406C58.9797 73.1406 70.3125 61.8078 70.3125 47.8281C70.3125 33.8484 58.9797 22.5156 45 22.5156C31.0203 22.5156 19.6875 33.8484 19.6875 47.8281C19.6875 61.8078 31.0203 73.1406 45 73.1406ZM45 77.8281C61.5685 77.8281 75 64.3967 75 47.8281C75 31.2596 61.5685 17.8281 45 17.8281C28.4315 17.8281 15 31.2596 15 47.8281C15 64.3967 28.4315 77.8281 45 77.8281Z" fill="#010101"/>
<path d="M48.4759 54.9792L56.8476 70.2984L32.1317 83.8053L23.76 68.4861L48.4759 54.9792Z" fill="white"/>
<circle cx="45" cy="48" r="39" stroke="#00ACC1" stroke-width="6"/>
<path d="M23.3445 65.1208C25.0143 64.2807 26.2851 63.3963 27.1569 62.4674C28.0813 61.5479 28.848 60.6002 29.457 59.6243C30.066 58.6483 30.6056 57.6056 31.0757 56.4962C31.5553 55.3343 32.2114 54.0954 33.0441 52.7798C32.8997 52.3741 32.8249 52.0351 32.8194 51.7629C32.8759 51.4475 32.9419 51.0795 33.0173 50.6589C33.0927 50.2384 33.2347 49.7484 33.4435 49.189C33.7049 48.639 34.0094 48.151 34.357 47.725C34.7141 47.2465 35.1096 46.8562 35.5435 46.5542C35.9774 46.2521 36.4572 46.1483 36.9829 46.2425C36.8927 46.4433 37.1394 46.7317 37.7231 47.1076C38.3594 47.4929 39.1223 47.9281 40.012 48.4131C40.9543 48.9076 41.9444 49.4377 42.9824 50.0036C44.0203 50.5694 44.9222 51.138 45.6879 51.7093C46.5399 52.4046 47.0933 53.1006 47.3482 53.7974C47.6651 54.451 47.7247 55.3298 47.5268 56.4337C47.3478 57.4325 47.0138 58.5392 46.5248 59.7537C46.0884 60.9776 45.621 62.2231 45.1225 63.4902C44.6861 64.7142 44.2187 65.9597 43.7203 67.2268C43.2839 68.4507 42.9715 69.5884 42.783 70.6397L42.4156 72.6899C42.2782 73.1536 42.3362 73.4352 42.5896 73.5349C42.905 73.5915 43.1942 73.6433 43.457 73.6904C44.0878 73.8035 44.6849 73.802 45.2483 73.6859C45.8116 73.5699 46.3797 73.4275 46.9525 73.2589C47.5779 73.0997 48.1722 72.9621 48.7356 72.8461C49.3084 72.6775 49.8933 72.5924 50.4904 72.5909L58.1926 69.5767C58.4689 69.2464 58.7835 69.0044 59.1366 68.8507C59.5517 68.6538 59.9358 68.4785 60.2889 68.3247C60.8711 68.1035 61.582 67.7698 62.4216 67.3234C62.8461 67.074 63.2969 66.8293 63.774 66.5892L66.1396 67.0132C66.2973 67.0415 66.3742 67.2181 66.3702 67.5429C66.3662 67.8677 66.3501 68.109 66.3218 68.2667C66.2088 68.8975 65.6206 69.6059 64.5573 70.392C63.4941 71.178 62.1633 71.9432 60.5649 72.6876C58.9665 73.432 57.2105 74.1481 55.2967 74.836C53.3923 75.4712 51.5284 76.0324 49.7049 76.5194C47.934 77.0158 46.2964 77.3734 44.7923 77.5921C43.3407 77.8202 42.2469 77.8683 41.511 77.7364C40.5648 77.5668 39.8449 77.1936 39.3515 76.6168C38.858 76.0401 38.4886 75.377 38.2431 74.6277C37.9976 73.8784 37.8667 73.0953 37.8503 72.2785C37.8959 71.4186 37.9894 70.5943 38.1308 69.8058C38.2344 69.2276 38.5644 68.4457 39.1209 67.4603C39.6773 66.4749 40.291 65.4727 40.962 64.4536C41.633 63.4344 42.2467 62.4322 42.8031 61.4468C43.3595 60.4614 43.6943 59.6533 43.8074 59.0224C43.8168 58.9699 43.4602 58.6889 42.7376 58.1796C42.0676 57.6797 41.3235 57.1394 40.5052 56.5587C39.6964 55.9254 38.926 55.3804 38.194 54.9236C37.524 54.4237 37.1937 54.1475 37.2031 54.0949C35.8299 55.0967 34.7843 56.2386 34.0662 57.5205C33.4006 58.8119 32.6994 60.1512 31.9625 61.5383C31.2781 62.9348 30.3571 64.2889 29.1997 65.6006C28.0947 66.9218 26.39 68.1083 24.0854 69.1601C24.0329 69.1507 23.9325 69.1056 23.7842 69.0248C23.5833 68.9345 23.4229 68.7701 23.3029 68.5316C23.1397 68.231 23.048 67.8348 23.0276 67.3428C23.0167 66.7983 23.1224 66.0576 23.3445 65.1208Z" fill="black"/>
</svg>
